<!DOCTYPE svg PUBLIC "-//W3C//DTD SVG 1.1//EN" "http://www.w3.org/Graphics/SVG/1.1/DTD/svg11.dtd">
<!-- Uploaded to: SVG Repo, www.svgrepo.com, Transformed by: SVG Repo Mixer Tools -->
<svg width="800px" height="800px" viewBox="0 0 32 32" fill="none" xmlns="http://www.w3.org/2000/svg">
<g id="SVGRepo_bgCarrier" stroke-width="0"/>
<g id="SVGRepo_tracerCarrier" stroke-linecap="round" stroke-linejoin="round"/>
<g id="SVGRepo_iconCarrier"> <g clip-path="url(#clip0_901_1252)"> <path d="M31 16.001C31 24.285 24.284 31.001 16 31.001C7.716 31.001 1 24.285 1 16.001M31 16.001C31 7.717 24.284 1.001 16 1.001C7.716 1.001 1 7.717 1 16.001M31 16.001H1M11.834 1.5879C9.397 5.8329 8.004 10.7549 8.004 16.0009C8.004 21.2469 9.396 26.1689 11.834 30.4139M20.1699 30.4121C22.6079 26.1681 23.9999 21.2471 23.9999 16.0011C23.9999 10.7571 22.6069 5.8381 20.1719 1.5901M27.6543 25.4395C24.0883 23.8745 20.1473 23.0045 16.0043 23.0045C11.8573 23.0045 7.9143 23.8765 4.3453 25.4435M4.3486 6.5635C7.9146 8.1315 11.8576 9.0015 16.0036 9.0015C20.1486 9.0015 24.0896 8.1305 27.6586 6.5635M15.999 1V31" stroke="#ffffff" stroke-width="2" stroke-linecap="round" stroke-linejoin="round"/> </g> <defs> <clipPath id="clip0_901_1252"> <rect width="32" height="32" fill="white"/> </clipPath> </defs> </g>
</svg>