<?xml version="1.0" encoding="UTF-8"?><svg id="Mighty_Oak_Entertainment" xmlns="http://www.w3.org/2000/svg" viewBox="0 0 896.76 659.43"><defs><style>.cls-1,.cls-2{fill:#fff;}.cls-2{stroke:#fff;stroke-miterlimit:10;}</style></defs><g id="Layer_5"><path class="cls-1" d="m694.83,309.54c3.1,1.58,6.19,2.88,9.27,3.92-3.96,6.02-5.8,9.45-11.67,12.29-8.26,4.35-26.11-1.93-38.77-16.21-12.61-14.34-27.92-22.25-47.39-20.28-38.53,1.18-47.56-1.28-87.7,9.94-3.59,1.7-11.72,1.72-13.6,1.17s-11.15,3.79-20.74,5.72c-50,18.03-40.53,13.34-56.37,22.44-10.22,5.58-24.14,1.44-34.26,13.11-7.09,8.18-8.9,33.86-11.28,43.35,1.19,4.33,1.61,9.45,1.66,14.94.94,2.13.85,3.76,0,5.01-1.83,17.99-3.31,30.87,2.14,43.58l5.51,12.94c9.08,2.56,16.86,5.15,20.1,7.82,2.5.81,5.05,2.5,7.63,5.02,1.45,1.75,2.42,3.3,2.8,4.58,1.46,3.44,4.92,5.15,9.62,5.8,4.79.47,8.9,1.6,10.55,5.17.7,1.44,1.78,3.01,3.42,4.89,19.24,9.8,64.56,10.79,87.64,13.38,15.81-3.16,19.64-5.68,23.34-8.34,7.25-5.03,13.65-9.07,18.93-11.79l1.95,3.48c-3.7,1.09-9.79,5.58-12.34,7.27-10.72,8.86-24.6,14.55-40.59,17.27-17.63.62-37.36-.33-57.96-1.94,4.51,5.44,7.54,10.78,10.02,16.71l-4.27-.52c-1.39-6.5-10.5-13.1-24.77-19.75-16.13-3.6-34.14-8.69-39.34-16.6-3.13-4.49-7.59-6.25-13.06-5.93-1.25,6.77.51,11.11,5.35,12.94,7.29,2.24,12.9,5.07,16.46,8.62,4.92,5.39,11.16,10,18.35,14.04,6.32,2.17,11.41,3.54,14.65,3.7,7.75,2.82,15.53,4.37,23.33,5.41,14.13.92,21.87.37,24.2-1.45l-1.59,6.06c-11.03,4.77-22.81,4.25-37.81,1.14-.21,3.13-.79,6.19-1.78,9.16-1.23,3.87-1.34,5.2-2.13,7.66l-5.56,2.42c.74-3.58,1.11-7.54,1.34-10.79.56-5.24-.77-8.17-4.42-8.31l-17.95.75c-5.6-.32-8.97-1.99-12.98-5.82,2.81,10.22-9.53,19.88-20.74,5.16,1.93-.09,3.28-.58,4.57-1.17,3.51,5.41,13.54,8.94,11.17-5.37-3.69-14.48-16.27-19.68-28.46-22.01-2.55-.44-13.68-.94-20.09-5.47-3,3.05-11.17,4.08-20.66,4.6-14.5-.03-27.57,12.64-28.91,23.26-1.17,3.65-1.59,6.25.81,7.07l-.38,3.37c-5.38.29-6.34-2.66-6.49-8.67-9.25,1.98-17.34,2.85-24,2.31-4.2.46-4.54,3.09-3.23,6.64,3.87,10.9,6.41,27.66,4.74,41.3l-2.66-3.15c-.24-11.7-2.24-27.42-6.96-35.66l-5.46-8.38c-4.97.64-9.48.27-14.09.2l-2.2-4.95c20.3-1.81,38.11-8.4,56.63-16.24,5.27-5.94,10.31-10.9,14.49-12.16,2.7-3.51,4.23-6.65,4.3-9.33-17.66.96-27.47,3.3-31.6,6.64-8.36,5.47-16.49,9.91-24.23,12.47-10.89,4.29-18.4,9.15-21.46,14.74-.64,1.47-.89,2.9-.69,4.29,1.63,5.17,4.74,10.79,9.03,18.68l-5.27-1.25s-5.48-10.03-7.82-16.84c-1.26-5.73-.38-10.56,3.16-14.26l14.44-13.71c0-1.34-.39-2.32-.99-3.13-5.13.52-10.68.78-16.62.81-12.09.31-20.98,2.81-26.31,7.74-7.78,6.16-19.81,10.29-30.11,8.28-8.73-1.95-15.49-8.4-23.29-18.14l1.17-5.38c6.93,8.48,12.53,14.43,19.3,17.66,2.62,1.08,5.27,1.46,8.06-.3,4.92-3.34,9.01-5.84,12.01-7.26,8.37-10.27,17.34-15.17,27-13.96,6.28.78,11.85.32,16.62-1.53,8.12-2.54,16.53-3.95,25.22-4.25,8.62-1.1,14.97-3.35,16.93-7.83,3.64-5.25,8.15-9.18,14.45-10.39,4.85-1.26,8.5-3.58,9.6-8.19.3-2.39,1.92-5.26,4.89-8.6,2.4-12.21,7-19.9,11.74-27.3,1.98-3.84,2.9-8.78,1.64-16.02-2.48-6.69-6.05-13.11-10.38-19.34-.52-1.26-.54-2.49,0-3.7,2.77-3.54,5.25-7.37,7.35-11.58,1.84-2.79-1.43-12.22.66-12.63-4.27-18.9-19.97-22.08-32.24-29.4-8.63-4.61-48.85-33.24-65.72-31.52-5.73,1.64-9.73-2.72-13.27-5.67-4.17-5.76-9.55-7.82-15.48-8.19-20.26-10.57-24.57-7.46-49.2-5.52-22.81.87-41.51,6.76-56.84,16.76-14.62,9.84-27.36,22.34-41.69,27.68-5.49,1.92-13.59-2.62-24.24-13.45-5.4-5.54-10.61-15.22-14.77-27.69-1.9-6.1.36-9.68,4.06-12.4,7.93-5.27,17.33-10.13,25.48-10.95,15.75-2.19,26.05,2.56,37.05,6.66-9.18,18.86-29.59,30-42.07,36.46l-5.54-6.46c13.68-7.88,25.65-16.94,33.1-25.01-6.99-2.88-14.53-4.1-22.64-3.6-9.46,1.97-13.92,4.28-18.37,8.57-1.34,1.85-2.01,3.73-1.95,5.64,1.42,8.79,6.51,16.02,17.76,27.64,4.16,3.58,8.23,3.89,12.26,2.06,17.42-8.5,42.74-29.65,55.4-36.7,12.02-7.68,24.9-12.15,38.77-12.92,10.2-.16,18.98-1.15,25.32-3.53,6.84-1.92,14.37-1.87,22.89,1.09,2.63.51,4.46.51,5.49,0-3.03-7.4-7.15-15.06-15.17-23.66-3.05-3.53-3.67-5.95-5.29-8.78.59.04,14.37-.03,14.37-.03,5.24,11.04,13.42,18.61,22.88,25.39l11.9,7.91c-5.8-8.87-8.97-19.68-6.82-32.22,3.92-16.76,13.69-35.64,23.95-47.6l-4.15,15.5c-7.68,11.65-12.27,22.07-13.23,32.97-4.72,57.61,76.24,78.93,97.63,59.08,17.43-21.42,36.01-20.79,55.75,2,20.64,22.94,105.71-12.61,91.32-79.96,4.51-1.53,7.47-4.23,8.51-7.65,5.41,31.25-1.12,60.75-18.92,80.07,52.47-18.43,92.87-51.26,64.15-93l11.2,3.31c13.04,19.49,11.51,47.42-15.89,76.86-2.54,5.42-3.25,7.42-3.69,12.75,15.99-5.91,36.27-5.05,58.77-6.21,26.94-4.06,47.81,1.43,65.2,12.37,11.25,11.06,17.56,17.23,24.64,24.21,5.82,5.64,14.19,9.33,18.42,2.53l4.12-6.46Z"/><path class="cls-2" d="m222.99,547.75c.22-1.34.43-2.23.09-3.75-6.08-4.42-61.72-15.27-68.24-2.68,8.3,17.46,21.54,30.49,32.61,35.86-.3-1.5-.47-3.16-.47-5.01-12.96-9.18-22.15-19.17-25.95-29.73,16.8-4.6,38.95-.34,61.95,5.33Z"/><path class="cls-2" d="m195.52,544.46c1.51.21,2.33.35,3.92,1.02-11.72,37.77,2.72,52.37,27.9,58.37l2.36,5.24c-31.6-7.32-48.59-25.66-34.18-64.63Z"/><path class="cls-2" d="m225.99,539.49h3.47c6.4,29.85-18.14,46.97-28.19,41.45-1.03-1.2-1.6-2.82-1.96-4.64,16.36,5.4,30.48-17.1,26.68-36.81Z"/><path class="cls-2" d="m232.96,546.56v4.24c7.16,3.62,24.06,8.03,43.42,12.24-.06-1.71-.3-3.33-1.16-4.64-14.78-3.38-29.72-7.5-42.26-11.84Z"/><path class="cls-2" d="m259.63,562.21l3.51.98c11.87,16.57,24.5,29.77,36.18,46.4-1.22.56-2.48,1.41-3.76,2.46-12.89-19.45-26.16-33.88-35.93-49.83Z"/><path class="cls-2" d="m290.41,556.57c1.47.28,2.75.2,3.79-.4-5.57-27.23,32.92,4.17-9.29,2.95.33,1.36.43,3.09.47,4.68,54.9-1.58-1.21-45.14,5.03-7.22Z"/><path class="cls-2" d="m240.6,604.74l1.66,4.08c49.81-12.9,5.26-55.82-9.3-27.92-15.22,27.23,26.67,79.59,82.79,61.88l-3.88-5.15c-36.01,17.62-90-26.02-74.67-54.67,13.3-19.98,42.6,13.01,3.4,21.78Z"/><path class="cls-2" d="m281.07,598.51l-2.31-3.44c2.4,64.02-27.53-6.9-3.38,14.02.62-1.2.87-2.32.48-3.31-35.34-28.19,6.64,65.77,5.21-7.27Z"/><path class="cls-2" d="m284.44,611.01l-.53,3.43c35.5,19.54-8.78,25.25,8.18,10.56-.34-1.35-.94-2.36-2.15-2.6-26.02,22.36,42.42,18.4-5.5-11.38Z"/><path class="cls-2" d="m293.06,566.49c1.77-.03,2.4-.3,3.66-.51,23.16,40.02,45.01,60.98,69.12,79.92,14.56,9.92,13.75,10.35,23.29.63,1.5.94,2.28.96,3.93,1.29-8.57,12.55-15.15,13.12-28.91,2.08-18.58-14.91-48.07-41.46-71.09-83.41Z"/><path class="cls-2" d="m296.88,616.07l1.79,2.2c12.66-15.12,36.98,13.83,22.59,15.35l3.42,3.91c17.84-4.72-9.34-39.5-27.8-21.46Z"/><path class="cls-2" d="m301.96,620.99c.84-1.59,2.02-2.25,3.48-2.16,15.76,17.66,33.38,50.05,53.15,29.97,1.09.71,2.1,1.49,3.37,2.06-22.41,19.88-34.83.32-60-29.88Z"/><path class="cls-2" d="m497.67,544.03l3.46-.95c2.13-9.88,4.29-17.72,6.58-20.85,3.28,1.55,5.27,2.78,7.6,5.19l4.86-.49c-3.74-4.12-7.75-6.6-13.85-9.22-4.47,4.98-6.43,15.14-8.65,26.33Z"/><path class="cls-2" d="m522.34,537.53c2.03-.25,3.79-.5,5.26-.74,7.51,10.22,9.19,21.27,9.53,34.1-1.22.93-2.58,1.67-4.06,2.24-.23-13.7-3.13-25.26-10.73-35.6Z"/><path class="cls-2" d="m520.52,540.6c1,1.07,1.65,2.22,2,3.44-10.86,2.62-30.43,9.05-47.27,12.19l2.56-4.47c14.55-2,31.17-9.37,42.7-11.16Z"/><path class="cls-2" d="m473.76,543.56c1.48.13,2.87.18,4.05,0-2.02,8.42-21.46,30.6-29.35,44.89.23-3.19,2.01-7.12,2.96-10.17,4.46-9.23,17.84-24.8,22.34-34.72Z"/><path class="cls-2" d="m463.01,554.77l-3.39,4.3c-10.47,6.11-17.62,6.57-25.03,5.72l2.5-3.95c11.94,2.34,16.02-3.8,25.92-6.07Z"/><path class="cls-2" d="m438.61,588.78l-1.17,7.77c-6.15,7.36-29.87,32.44-38.18,42.85-1.48.46-2.86.25-4.01-1.41,5.58-8.19,25.33-27.88,43.36-49.2Z"/><path class="cls-2" d="m531.88,537.79l2.28,4.03c10.79-1.69,22.79-1.09,31.12,1.42-19.92,34.29-58.96,54.94-63.82,10.23-1.39,0-2.76.48-4.1,1.3,6.56,50,47.86,32.01,74.31-13.4-8.94-4.66-23.25-5.64-39.8-3.58Z"/><path class="cls-2" d="m533.69,584.54c1.27-.61,2.65-1.3,4.12-2.06-3.16,18.31-46.49,35.27-69.07,21.71-23.64-15.44,27.93-81.68,28.66-2.89-1.5.48-3.1.58-4.8.32-.57-64.83-37.84-9.85-20.1-1.03,24.45,12.34,60.19-7,61.2-16.05Z"/><path class="cls-2" d="m491.25,612.23c1.99.11,3.91,0,5.75-.43-9.53,34.56-71.89,47.08-105.45,33.07-13.67-4.37,7-44.45,21.67-32.59-.72,1.49-1.7,2.75-2.88,3.83-8.06-7.92-26.95,21.29-13.73,25.58,32.08,10.43,87.69-2.08,94.65-29.46Z"/><path class="cls-2" d="m452.05,566l-3.39,1.59s-8.04,17.02-9.87,40.51c-4.86,49.64,45.71-12.96,6.93-1.65l-.76,3.65c29.35-9.7-8.39,37.38-2.28-5.67,1.47-8.75,2.07-19.63,9.37-38.42Z"/><path class="cls-2" d="m367.49,643.06c-1.24-.52-2.34-1.08-3-1.77,36.27-41.64,39.41-42.99,68.24-87.86,8.76-15.95-25.93-2.9-6.33,4.24l-2.41,3.29c-29.69-9.97,22.04-31.21,14.2-8.77-22.52,39.16-42.71,58.58-70.71,90.88Z"/><path class="cls-2" d="m394.05,525.08s1.42,1.84,1.88,3.28c5.87-1.08,6.52,3.8,7.2,11.6,1.58.86,3.06.8,4.45,0-.54-9.79-4.75-16.98-13.52-14.88Z"/><path class="cls-2" d="m399.54,523.39c1.88.43,3.63,1.58,5.26,3.47-2.66-9.49-10.75-15.29-24.5-3.91,1.38.93,2.26,1.58,2.75,2.42,9.5-8.62,14.95-6.59,16.49-1.98Z"/><path class="cls-2" d="m398.8,530.87c1.05.67,1.68,1.96,2.02,3.69-4.45,3-7.97,4.01-12.91,1.25,1.36-.59,1.78-1.84,2.54-3.09,3,2.48,5.46,1.2,8.35-1.84Z"/><path class="cls-2" d="m391.48,531.51c2.2,1.2,3.15,1,3.88-.31-1.21-2.93-2.88-5.54-5.45-8.58-.9.21-1.99.84-3.18,1.66,2.34,2.67,4.51,5.13,4.76,7.22Z"/><path class="cls-2" d="m387.27,528.35c1.07.79,1.8,1.82,2.1,2.93-10.95,14.35-19.15,14.82-27.09,5.1.93-.96,1.69-1.6,2.21-2.63,7.89,9.53,14.82,6.67,22.78-5.4Z"/><path class="cls-2" d="m384.85,529.28c-.73,1.25-1.48,1.83-2.24,2.31-4.85-4.97-8.5-8.76-12.86-5.4-.96-.59-1.79-1.57-2.43-3.14,4.33-4.77,9.56-2.26,17.53,6.23Z"/><path class="cls-2" d="m375.71,528.35c1.41.39,2.54,1.08,3.25,2.19-4.81,2.33-8.04,8.58-16.91-4.92.72-1.7,1.68-2.72,3.03-2.63,3.91,7.72,7.35,7.34,10.63,5.36Z"/><path class="cls-2" d="m381.98,518.92c.91-.88,2.16-1.63,3.74-2.25-8.97-10.16-18.65-7.52-28.9,5.41,1.44.54,2.49,1.52,3.25,2.86,10.18-14.13,16.4-11.58,21.9-6.02Z"/><path class="cls-2" d="m361.68,528.51c.72,1.33,1.43,2.33,2.14,2.88-11.59,14.24-20.01,16.15-27.96,4.8,1.12-.52,1.71-1.06,2.99-2.16,5.25,9.66,12.09,8.09,22.83-5.52Z"/><path class="cls-2" d="m357.08,530.43c1.04-.39,1.82-1.21,2.69-2.46-5.94-6.59-11.32-7.99-17.13-4.44q.87,1.71,2.7,2.42c4.74-1.57,8.17-.69,11.74,4.48Z"/><path class="cls-2" d="m357.17,518.17c.53-.89,1.16-1.5,2.6-2.64-11.38-8.74-21.62-7.18-30.3,7.46,1.74.29,3.09.96,4.12,1.95,5.05-8.21,10.55-16.7,23.58-6.77Z"/><path class="cls-2" d="m351.7,528.35c1.29.61,2.36,1.6,3.25,2.93-4.76,5.85-10.71,4.07-18.8-6.57.48-1.64,1.2-2.78,2.17-3.42,10.4,12.68,11.07,9.05,13.37,7.06Z"/><path class="cls-2" d="m319.07,539.96l-.51,2.91c3.81-1.35,5.61-1.53,10.91-11.4-.4-.85-1.32-1.56-2.99-2.08-1.97,5.74-3.66,8.53-7.41,10.57Z"/><path class="cls-2" d="m337.03,528.35c.64,1.25,1.55,2.19,2.67,2.91-3.11,2.6-6.99,5.95-10.63,5.35.44-1.1.82-1.77,1.25-3.29,2.98.52,4.99-2.48,6.7-4.97Z"/><path class="cls-2" d="m331.77,531.59c1.15-.32,1.8-1.47,2.62-2.64-2.8-3.59-5.59-5.03-10.81-5.63-.13,1.32-.01,2.5.38,3.54,3.73.25,5.82,1.55,7.81,4.73Z"/><path class="cls-2" d="m332.26,516.24c-.91.96-1.67,1.8-2.36,2.63-7.45-.24-11.01,4.45-5.3,11.43-.27,1.41-1.05,2.62-2.1,3.73-10.74-11.37,1.45-21.1,9.75-17.79Z"/><path class="cls-2" d="m316.39,527.46c.83,3.41,1.04,3.86,1.71,5.44-.78,4.45-1.13,7.2-1.47,10.43-4.54,42.11,6.71,59.07,36.61,68.12l4.17,3.53c-1.54,1.32-2.67.81-4.37.71-47.55-13.07-41.33-50.19-39.42-72.2.55-6.37,1.28-13.05,2.76-16.02Z"/><path class="cls-2" d="m342.64,577.75l3.93,1.41c-7.05,17.75-3.22,15.25,16.18,32.86,35.99-10.57,43.07-35.23,40.64-64.52,1.8.38,3.44.42,4.88,0,2.51,28.36-2.55,53.85-45.52,69.14-25.29-21.07-27.24-17.39-20.11-38.89Z"/><path class="cls-2" d="m360.8,607.03l2.41,2.87c19.66-11.27,26.05-22.54,1.5-50.58l-2.75,2.58c21.18,22.94,16.42,35.98-1.15,45.13Z"/><path class="cls-2" d="m368.91,574.71l1.59,3.74c-26.7,2.28-44.99-4.96-51.95-31.89,18.27-5.61,30.82-1.77,40.59,6.68l-2.33,2.6c-11.53-7.5-22.54-9.52-32.81-6.28,7.06,20.68,23.86,26.21,44.9,25.15Z"/><path class="cls-2" d="m347.11,570.16l3.92,1.49c13.45-17.04,22.1-26.91,45.52-20.79-3.08,8.25-10.84,17.51-18.87,20.81l1.27,4.35c13.58-6.91,23.02-15.48,22.59-27.98-27.62-7.46-33.4-3.14-54.43,22.12Z"/><path class="cls-2" d="m431.28,612.04c-47.92,29.78,20.52,33.75-5.5,11.38-1.21.24-1.81,1.26-2.15,2.6,16.96,14.69-27.32,8.98,8.18-10.56l4.38-2.53v-3.79l-4.91,2.89Z"/></g><g id="Layer_6"><path class="cls-2" d="m28.92,310.59l-4.04-6.41c-1.51,1.1-1.51.44-2.37.16-19.86-9.36-16.13-38.74-.8-46.91,10.61-7.02,84.03-39.12,117.06-28.39,1.85-3.4,2.96-6.58,2.77-9.37-29.44-2.38-84.76,9.52-123.52,29.57-9.6,5.75-11.3,9.25-15.56,20.03-5.38,17.54.49,32.25,14.01,41.07,5.5,3.59,7.66,2.07,12.43.23Z"/><path class="cls-2" d="m114.75,230.12l10.68-.47c2.16,3.38,5.77,6.61,10.38,9.75,8.42-9.84,11.28-20.47,13.15-31.25l6.13-1.83c-1.77,18.55-5.9,34.16-14.71,43.91-11.41-3.3-19.6-10.01-25.01-19.68"/><path class="cls-2" d="m156.92,220.75c-.16,2.91-.8,6.28-1.93,10.12,8.61-3.7,24.85-8.05,70.07-5.91l2.03-5.58c-2.31-6.71,3.58-23.84,8.63-38.88l-6.95,2.09c-4.28,9.51-9.12,20.73-10.73,32.7-25.53-.71-47.09.53-61.11,5.47Z"/><path class="cls-2" d="m182.89,211.45l12.76-.69c-2.87-5.93,24.12-49.71,36.79-72.49,1.44-6.9,1.54-14.34.73-22.15-21.01,30.56-51.47,88.71-50.28,95.34Z"/><path class="cls-2" d="m217.78,173.19l-7,13.13c13-4.99,31.75-13.37,42.7-16.12l4.58-11.67c-12.31,3.76-27.71,9.38-40.27,14.65Z"/><path class="cls-2" d="m278.81,154.06l-6.64,11.44c17.25-6.93,35.45-9.65,54.99-10.59,10.49-20.68,20.13-33.64,35.87-46.05-1.81-3.13-3.66-6.26-6.45-8.12-14.95,11.92-24.02,22.1-32.18,38.94-2.52,4.99-6.11,7.94-10.95,8.51-13.88.43-25.23,2.51-34.64,5.87Z"/><path class="cls-2" d="m236.99,98.81l8.74-5.8c.36,27.04-3.89,55.58-8.27,69.15l-6.67,2.39c9.22-37.72,8.27-51.17,6.2-65.74Z"/><path class="cls-2" d="m299.66,100.22c2.73,1.37,5.44,2.54,6.82,5.15-21.87,28.98-40.03,57.09-47.63,80.01-6.31,14.82,2.44,23.26,9.51,21.63,14.52-1.92,18.71-32.82-5.82-23.11l5.82-9.32c10.45-3.17,18.66,7.53,18.18,19.01-.2,9-6.11,15.9-17.31,20.57-12.63,3.63-24.19-6.42-16.69-27.73,8.69-28.42,24.59-56.52,47.12-86.19Z"/><path class="cls-2" d="m190.1,182.34l-4.83,10.02c-22.49,4.86-41.52,12.7-64.48,20.98l-2.77-8.29c24.39-9.38,45.51-15.89,72.08-22.71Z"/><path class="cls-2" d="m109.51,218.67l9.43-1.65c-4.52-10.45-18.37-46.8-15.03-66.58-2.95.18-6.86,2.04-11.42,5.05,2.77,23.24,10.02,45.43,17.02,63.18Z"/><path class="cls-2" d="m104.09,217.75l-2.7-7.93c-18.11,4.19-37.71,3.17-55.64.84,9.82-23.13,20.65-42.13,43.09-58.25,9.52-5.63,19.68-7.88,29.21-6.7,11.32,2.1,26.47,18.98,27.5,44.44l7.45-2.1c-.22-20.91-8.69-38.88-26.09-47.8-14.1-5.4-23.74-3.62-40.85,4.85-22.85,12.46-38.6,39.16-50.34,70.67,26.25,6.95,48.77,7.12,68.36,1.98Z"/><path class="cls-2" d="m92.8,138.03c3.98-1.28,7.9-3.2,12.7-3.72,11.38-19,24.95-29.06,49.4-34.42,14.62-2.85,33.27,1.39,45.13,10.78,6.32,5.34,1.18,31.34-15.54,44.49-3.3,3.36-6.53,5.63-9.37.82-10.3-13.14-12.56-31.78-10.23-52.62-2.65-1.49-6.32-.25-9.98.94-5.21,29.55,10.8,53.22,16.79,63.05,1.65,3.1,5.4,3.87,9.59.98,15.48-8.96,25.62-22.1,29.47-39.02,2.93-14.14,1.26-23.46-7.42-28.23-12.11-8.43-36.25-15.59-52.38-11.31-30.3,7.75-46.45,26.96-58.18,48.26Z"/><path class="cls-2" d="m158.76,85.26c3.27-.13,6.51-.56,9.7.37,11.09-15.65,22.99-31.02,44.5-37.92,12.53-3.82,31.76-5.67,49.83,2.77-1.41,3.96-2.3,8.48-4.97,13.8,1.08,1.46,3.26,2.85,5.97,4.2,4.06-7.87,5.86-15.34,7.47-21.33-16.09-8.71-33.41-12.45-52.7-8.22-27.04,7.17-47.76,22.86-59.8,46.33Z"/><path class="cls-2" d="m238.27,47.68c3.07,0,5.88-.24,9.14,1.79.98,5.69,5.24,17.36,15.37,22.11l-3.98,6.01c-13.77-6.74-21.01-20.34-20.53-29.9Z"/><path class="cls-2" d="m248.71,75.49l6.81,4.39c-9.3,9.63-25.61,20.57-36.62,19.48-12.68-2.66-18.65-10.14-18.86-21.78,3.33-11.8,11.12-16.48,22.15-15.98,10.05,1.61,15.11,4.79,19.52,13.16l-8.11,4.85c-1.64-7.53-4.44-10.13-12.2-10.81-7.51-.08-11.01,3.32-12.13,8.78-.66,7.31,3.2,11,12.13,10.61,9.94.2,18.76-5.51,27.31-12.7Z"/><path class="cls-2" d="m250.77,94.65c-.49.4.02,17.54.02,17.54,12.52-24.27,28.98-47.74,47.52-65.43l-7.22-6c-14.53,18.47-28.36,34.57-40.32,53.9Z"/><path class="cls-2" d="m277.44,77.15c-2.34,2.05-3.9,4.35-4.55,6.92,22.81,5.56,41.94,19.05,57.45,38.23l3.87-6.26c-14.58-19.93-34.14-30.87-56.77-38.9Z"/><path class="cls-2" d="m308.02,86.2l6.7,5.28c13.88-19.21,30.82-38.83,48.51-56.58l-6.67-5.74c-18,18.13-34.8,37.95-48.54,57.04Z"/><path class="cls-2" d="m241.05,34.61l9.12,1.36c19.01-17.56,24.24-12.46,39.93-.73,11.08,8.11,22.92,16.71,33.33,25.07l5.14-6.01c-15.98-13.36-32.01-24.59-47.31-34.55-7.78-4.54-16.22-2.9-24.53,1.98-5.18,3.29-11.53,7.73-15.69,12.89Z"/><path class="cls-2" d="m340.15,66.04l-5.93,6.3c22.89,18.79,30.38,29.4,45.58,52.46l5.26-5.61c-20.45-30.68-22.67-35.33-44.9-53.14Z"/><path class="cls-2" d="m368.14,87.83c3.09,3.48,4.05,5.24,6.41,8.96,14.47-16.73,36.78-39.34,57.77-55.06,0,0-3.2-5.17-6-7.11-16.03,12.16-44.14,36.81-58.19,53.21Z"/><path class="cls-2" d="m393.49,56.67l7.43-6.14-47.56-40.15c-8.64-6.83-20.48-7.23-28.65,0l-22.35,18.62,7.7,5.42,19.16-16.55c6.83-5.18,13.46-6.28,19.77-.31l44.49,39.1Z"/><path class="cls-2" d="m367.48,17.27l5.26,4.98c16.85-18.2,33.01-17.01,53.31,5.67,10.48,14.24,23.73,29.62,33.81,46.75l7.55-4.09c-10.13-16.99-24.18-35.56-35.49-48.53-33.89-36.33-49.25-18.79-64.45-4.79Z"/><path class="cls-2" d="m439.67,25.82l4.14,5.72c21.52-16.95,26.68-14.68,42.52,2.89,7.31,7.61,5.39,17.17-1.91,26.33.93,2.41,2.38,4.09,4.41,4.95,9.82-11.03,14.15-25.11,3.43-35.41-25.94-24.85-26.46-22.1-52.59-4.48Z"/><path class="cls-2" d="m486.42,40.26c1.73,1.94,2.13,4.68.56,7.71-3.9.37-10.78-.45-12.17,3.31-2.65,7.6,14.28,18.15,17.44,20.23-1.26,1.97-2.56,3.73-3.19,5.44-4.87-3.56-21.52-11.33-23.06-27.13-.1-5.86,12.12-9.94,20.41-9.56Z"/><path class="cls-2" d="m473.93,70.59c2.38,2.55,3.24,2.92,5.18,4.29-9.58,5.89-22.1,13.13-32.39,21.92-1.8-2.55-3.82-4.76-6.08-6.61,10.12-7.84,22.51-13.09,33.3-19.59Z"/><path class="cls-2" d="m482.47,163.88c-6.96-35.79-43.48-69.4-70.74-100.16l-6.58,5.29c35.34,37.59,63.2,69.48,68.4,95.94,4.37-.93,6.1-1.03,8.92-1.07Z"/><path class="cls-2" d="m423.56,94.34c2.56,2.36,4.98,5.32,7.2,9.22-21.59,9.17-44.52,27.49-61.35,56.55-1.32-2.15-2.44-3.91-4.81-7.41,18.94-29.98,40.08-48.24,58.97-58.37Z"/><path class="cls-2" d="m342.47,139.13c1.2-3.05,2.4-5.06,3.61-5.91,16.36,22.29,31.83,46.16,40.65,66.55,7.08,13.88,15.51,51.01-.39,71.31-18.74-14.2-27.54-46.18-7.76-62.35,1.72,2.49,2.42,3.64,2.61,7.23-12.08,10.47-9.82,32.81,3.82,44.38,5.6-14.49,4.62-35.41-2.21-51.9-9.84-21.95-23.87-48.52-40.34-69.32Z"/><path class="cls-2" d="m391.13,199.88s2.54,8.48,2.13,7.25c8.54-8.17,19.75-12.24,29.18-11.51,23.93.86,14.51,36.16,3.43,42.85-25.69,15.81-22.33-32.33,1.65-8.42l3.82-5.54c-32.93-33.27-43.51,39.66-2.33,20.57,12.63-4.95,19.93-35.51,12.02-46.45-10.68-15.51-31.44-13.38-49.9,1.25Z"/><path class="cls-2" d="m443.26,233.45c-.74,2.5-2.29,4.98-4.41,7.44,3.1,3.72,6.71,7.13,10.77,10.26,8.59-1.02,14.88-.33,22.36-2.91,1.82-4.14,2.58-9.53,2.67-13.55-7.57,3.15-13.74,4.25-21.72,5.39-3.76-1.63-7.08-3.75-9.67-6.64Z"/><path class="cls-2" d="m238.49,222.62l-1.54,4.98c8.14,5.37,17.54,8.74,28.23,10.08,5.04-.12,9.36-1.49,12.88-4.23v-8.91c-4.33,4.18-9.82,5.78-15.27,5.83-9.11-.46-17.1-3.29-24.3-7.75Z"/><path class="cls-2" d="m290.04,222.62v7.01c5.27.03,9.88.94,13.75,2.83,4.63,3.82,5.91,8.07,5.17,12.58-1.38,5.81-8.35,5.99-15.2,1.95-5.44-4.79-6.4-14.03-5.93-25.26,1.19-12.36,19.58-34.91,46.91-13l2.31-6c-31.52-21.56-51.2-.58-55.71,17.86-1.74,8.23.53,23.79,7.38,30.56,4.72,4.37,11.56,6.28,17.48,4.25,7.19-2.95,9.43-9.08,8.51-16.71-1.58-8.31-5.73-12.08-13.43-15.13-4.69-1.08-8.25-1.24-11.23-.94Z"/><path class="cls-2" d="m356.18,168.81l4.75,6.68c-14.08,30.83-34.43,69.59-22.06,84.62,9.53-1.62,20.77-26.58,7.02-41.37.47-3.65,2.4-6.84,2.77-6.07,17.48,18.51,8.44,50.37-12.66,57.68-7.56-8.34-10.52-28.05-4.98-43.34,6.5-17,17.25-45.08,25.16-58.2Z"/><path class="cls-2" d="m492.8,166.32l2.92,12.66c-20.5-7.11-50.24,3.36-41.94,11.61,14.93,13.42,26.74,14.95,22.44-8.73,3.05-2.03,6.05-1.83,9.02-.62,7.56,24.89-12.3,39.09-38.29,15.31-14.19-17.35,11.26-27.87,45.84-30.23Z"/><path class="cls-2" d="m465.14,87.32l8.66-5.34c14.51,29.34,35.27,58.22,58.28,88.34l-10.82-2.57c-20.65-26.47-39.29-53.56-56.12-80.43Z"/><path class="cls-2" d="m488.15,100.02l5.2,8.71c-.29-24.61,11.4-50.04,28.36-39.14,18.24,14.79-7.89,32.97-19.76,12.1l-2.18,7.12c9.1,18.94,40.35,9.46,32.99-14.6-5.38-17.94-41.07-23.09-44.62,25.8Z"/><path class="cls-2" d="m558.32,91.16c1.61,2.81,2.61,6.17,3.34,9.77-27.49-.41-49.12,24.73-14.1,48.93,10.77,6.14,15.17,7.51,18.21.15,16.28-53.22-18.02-97.78-63.72-102.53.36-2.5.12-5.05-.69-7.63,49.06.38,99.43,62.05,67.41,121.3-3,3.8-5.71,2.61-11.64.48-50.49-18.19-46.62-61.26,1.2-70.47Z"/><path class="cls-2" d="m577.84,92.41l1.86,8.78c49.97,7.14,68.19,39.79,45.58,98.69l7.29,1.37c25.39-62.25,7.91-100.34-54.73-108.84Z"/><path class="cls-2" d="m629.33,137.77l1.38,9.34c-33.82-13.49-42.08,32.62-39.07,72.01l-7.62-.69c-7.41-56.06,17.56-92.61,45.3-80.65Z"/><path class="cls-2" d="m594.85,195v9.63c39.71,12.72,74.3,16.71,97.58,7.38-3.14-26.74-22.91-48-45.78-68.3l-.11,11.57c10.98,9.79,22.41,18.71,34.81,50.86-28.83,7.35-51.96-.58-86.51-11.13Z"/><path class="cls-2" d="m556.36,221.1c-.37,4.59-1.17,8.69-2.29,12.42,17.31-1.9,34.01-3.72,53.21-2.69l4.45-5.54c-17.96-3.05-35.17-4.21-55.37-4.2Z"/><path class="cls-2" d="m585.92,234.2l6.82-.35c2.18,14.14,22.07-1.84,28.7-17.77l6.28,1.07c-11.51,28.48-39.43,42.36-41.8,17.04Z"/><path class="cls-2" d="m627.03,227.32l-3.82,6.21c36.35,4.35,63.93,10.67,88.7,22.25,8.32,2.95,11.58,8.17,11.66,19.27-1.88,15.85-7.49,28-14.11,26.9-20.48-5.83-33.17-18.81-44.31-34.42,11.93-2.9,26.28.2,39.56,5.8,10.29,4.35-.59,11.6-3.07,22.38-.79-.44,7.24,3.62,7.24,3.62,1.68-8.01,11.85-19.14,8.09-24.88-4.15-7.68-37.72-23.34-62.51-10.67,8.27,15.78,18.16,29.72,32.83,38.24,13.24,9.07,28.26,14.21,34.03,5.37,11.67-16.12,21.66-48.07-3.16-58.05-27.84-11.3-42.23-16.32-91.12-22.02Z"/><path class="cls-2" d="m484.25,121.82l9.45,13.33c11.96,28.88,21.11,56.65,23.26,81.63,7.71.57,14.82,1.39,20.43,2.85.93,4.13-1.09,8.86-2.72,12.92-12.71-2.51-28.4,3.21-44.69,12.52,1.12-5.77,2.04-8.77,2-15.27,5.51-4.55,11.18-9.18,12.85-11.64,1.05-21.98-10.15-59.06-20.59-96.35Z"/><path class="cls-2" d="m509.48,168.48l4.63,12.99c19.19,5.35,38.94,11.6,63.4,18.41v-11.6c-21.07-6.58-44.03-13.21-68.03-19.8Z"/><path class="cls-2" d="m396.49,154.05c-2.87-1.95-8.83-12.52-8.83-12.52,1.49-1.85,3.37-3.48,5.75-4.8,2.37,4.85,6.09,9.81,7.97,10.51,18.48-4.35,39.57-5.39,68.97,18.26l-10.01,2.6c-24.11-19.9-39.73-15.04-63.85-14.06Z"/></g><g id="Layer_7"><path class="cls-2" d="m575.67,488c18.06-7.7,8.3,19.99-.3,24.85-3.68-1.98-7.08-2.44-9.65-11.03l3.75-2.87c.77,6.52,4.95,9.31,5.66,9.31,1.98-.42,11.59-21.25,2.5-16.78"/><path class="cls-2" d="m507.71,530.29l-.91,5.66c90.91-6.35,94.45-31.05,92.8-45.89-1.78-20.63-36.87-32.06-35.63,1.43l4.52-2.29c3.87-47.99,84.25,39-60.78,41.1Z"/><path class="cls-2" d="m195.74,532.44l2.12-4.32c-83.77-1.63-72.87-49.87-55.97-54.48,8.27-2.26,28.85,7.22,11.45,33.68-4.04-2.24-16.01-28.43,2.56-12.81l1.39-4.41c-29.08-17.75-11.57,18.31-3.96,23.36,30.09-34.81-6.82-53.7-17.92-42.27-15.62,12.73-25.86,58.24,60.32,61.25Z"/><path class="cls-2" d="m198.88,535.1c1.65.31,2.9.55,3.52.67,4.09-9.3,16.23-15.7,21.53-7.14h3.25c-3.98-12.29-22.73-11.1-28.3,6.47Z"/><path class="cls-2" d="m208.35,533.6l2.59-3.57c5.68-1.36,20.66,2.94,30.38,3.21l1.9,3.96c-12.61,1.33-28.17-4.03-34.86-3.59Z"/></g></svg>