<?xml version="1.0" encoding="UTF-8"?>
<svg id="Layer_1" data-name="Layer 1" xmlns="http://www.w3.org/2000/svg" width="63.74" height="93.19" viewBox="0 0 63.74 93.19">
  <path d="m60.13,22.25C54.59-9.3,14.24-6.53,12.66,25.71c-.49,36.89-2.84,48.67-12.66,54.3,3.17,5.34,7.42,9.4,15.3,6.99,1.27-.42,5.42-3.38,12.66,4.22,4.53,3.82,11.55,1.03,12.53.4,5.65-4.19,12.2-3.14,17.41,1.45,6.62-24.69,7.96-48.41,2.24-70.81Zm-32.64,10.88c-2.18,0-3.96-1.77-3.96-3.96s1.77-3.96,3.96-3.96,3.96,1.77,3.96,3.96-1.77,3.96-3.96,3.96Zm11.06,6.87c-3.98,0-3.86-4.82-3.86-4.82h1.21s-.22,3.78,2.65,3.88c2.87.1,2.82-3.88,2.82-3.88h1.04s.13,4.82-3.85,4.82Zm9.69-6.87c-2.18,0-3.96-1.77-3.96-3.96s1.77-3.96,3.96-3.96,3.96,1.77,3.96,3.96-1.77,3.96-3.96,3.96Z" fill="#fff"/>
</svg>